<svg width="98" height="46" viewBox="0 0 98 46" fill="none" xmlns="http://www.w3.org/2000/svg">
<g clip-path="url(#clip0_1_843)">
<path d="M85.8245 25.6803H77.2041H72.6265V22.8757C72.6265 21.1516 72.398 19.553 71.9386 18.0775C71.4792 16.602 70.7842 15.3101 69.8489 14.1994C68.9159 13.0888 67.745 12.236 66.3385 11.6365C64.932 11.037 63.264 10.7373 61.3392 10.7373H55.5719L56.3187 9.33384C56.5849 8.83659 56.8582 8.33237 57.1409 7.82119C57.4213 7.31 57.777 6.71051 58.2082 6.02505C58.637 5.3396 59.2071 4.48452 59.9186 3.46214L53.4775 0C52.6788 1.19897 52.0262 2.19114 51.522 2.98116C51.0179 3.76885 50.6173 4.41946 50.3229 4.93065C50.026 5.44183 49.7739 5.88796 49.5666 6.26671L47.0787 10.8674L51.522 17.1341H61.3416C62.1402 17.1341 62.814 17.3084 63.363 17.6592C63.9096 18.0101 64.3171 18.5956 64.5857 19.4112C64.8519 20.2291 64.9862 21.3839 64.9862 22.8734V25.6779H40.4585V10.0356H32.8159V32.6928C32.8159 34.2125 32.5261 35.3719 31.9489 36.1759C31.3717 36.9798 30.5777 37.3818 29.5717 37.3818C29.3644 37.3818 29.0299 37.3749 28.5728 37.3609C28.1134 37.347 27.6187 37.34 27.0839 37.34L26.9496 43.6067C27.482 43.6648 27.9862 43.709 28.4597 43.7392C28.9333 43.767 29.3338 43.7833 29.6589 43.7833C31.8217 43.7833 33.7088 43.3093 35.3249 42.3589C36.9388 41.4086 38.1968 40.0935 39.1015 38.4158C40.0038 36.7359 40.4562 34.8282 40.4562 32.6975V32.0841H77.2018H93.4648V10.0356H85.8221V25.6803H85.8245Z" fill="#010B11"/>
<path d="M88.5786 0.174271H81.2917V5.91585H88.5786V0.174271Z" fill="#010B11"/>
<path d="M97.9976 0.174271H90.7555V5.91585H97.9976V0.174271Z" fill="#010B11"/>
<path d="M25.7928 17.4501C25.6303 16.3836 25.3099 15.3752 24.8363 14.4271C24.3628 13.4768 23.6678 12.6217 22.7489 11.8619C21.8301 11.1044 20.631 10.5049 19.1491 10.0658C17.6672 9.62893 15.8178 9.40819 13.5961 9.40819C11.8174 9.40819 10.1376 9.52669 8.55206 9.75905C6.96651 9.99373 5.76027 10.2702 4.93098 10.5909C4.75429 11.2345 4.5611 12.1035 4.35378 13.2003C4.14645 14.2947 3.9674 15.5146 3.82133 16.8576C3.67055 18.203 3.59752 19.5901 3.59752 21.0215C3.59752 22.4528 3.65642 23.747 3.77657 24.9878C3.87552 26.0311 4.00038 26.9652 4.15352 27.7901C3.10042 28.6475 2.23579 29.6861 1.55492 30.9037C0.515951 32.7579 0 34.9421 0 37.4562C0 38.6528 0.110729 39.9982 0.332187 41.4876C0.553646 42.977 0.798663 44.4804 1.06488 46H8.57562C8.33767 44.1016 8.12328 42.4588 7.93009 41.0717C7.7369 39.6822 7.64267 38.4785 7.64267 37.4562C7.64267 36.1108 7.80287 35.0373 8.13035 34.2334C8.45547 33.4317 8.87718 32.8322 9.39549 32.4372C9.91379 32.0422 10.4557 31.7797 11.0187 31.6495C11.5818 31.5171 12.1001 31.452 12.5736 31.452H26.0378V20.6265C26.0378 19.5762 25.9554 18.5166 25.7928 17.4501ZM17.4175 26.2774C15.0262 27.4206 12.2933 26.9838 10.4227 25.1458C9.72296 24.458 9.24235 23.6401 8.95021 22.7037C8.38714 20.8937 8.6463 19.2021 9.68291 17.636C10.6347 16.2 12.0059 15.3426 13.7257 15.0568C14.5008 14.929 15.2971 14.943 16.0628 15.1196C16.4492 15.2079 16.8285 15.3357 17.1913 15.496C17.5847 15.6702 18.3669 16.0513 17.924 16.595C17.8085 16.7368 17.6884 16.7879 17.5659 16.7856C17.3162 16.7832 17.0617 16.5671 16.8285 16.4603C16.4869 16.3046 16.1288 16.1861 15.7636 16.1048C13.6644 15.6331 11.3674 16.6578 10.3426 18.5259C9.66642 19.7598 9.5015 21.0563 9.93499 22.3924C10.5452 24.2652 11.8574 25.42 13.8082 25.7871C16.5717 26.3099 19.1726 24.5022 19.658 21.7627C19.7616 21.1725 19.7593 20.566 19.6368 19.9782C19.5519 19.5762 19.0972 18.9999 19.3964 18.6026C19.7216 18.1704 20.2634 18.5166 20.4119 18.907C21.4673 21.686 20.1386 24.9716 17.4127 26.2751L17.4175 26.2774ZM13.9801 23.4333C15.389 23.8376 16.852 23.0407 17.2455 21.6256C17.3303 21.3189 17.3256 20.9796 17.3162 20.6543C17.3162 20.6079 17.3162 20.566 17.3185 20.5265L18.1761 19.8109C18.6096 20.8425 18.4352 22.7084 16.9486 23.8144C15.4267 24.9483 13.3228 24.7717 12.0247 23.3985C10.7761 22.081 10.703 19.9851 11.9305 18.5771C13.2239 17.0923 15.2665 17.0505 16.4939 17.7894C16.2254 18.0171 15.9686 18.2448 15.6953 18.4539C15.6481 18.4911 15.5351 18.4655 15.4597 18.4446C14.0602 18.0635 12.6184 18.821 12.2108 20.1524C11.7797 21.5652 12.5666 23.0244 13.9801 23.4287V23.4333ZM19.9548 18.0659L19.1396 17.8823C19.0713 17.9381 19.003 17.9962 18.937 18.0542C17.997 18.8559 17.0523 19.6552 16.1076 20.4499C15.9992 20.5405 15.9733 20.6218 15.9921 20.7612C16.0651 21.3259 15.7966 21.8324 15.3136 22.0787C14.8613 22.3087 14.2746 22.2413 13.8788 21.9137C13.4689 21.5722 13.3228 21.0238 13.5019 20.501C13.7163 19.8783 14.4396 19.5204 15.1016 19.7272C15.2311 19.7667 15.3112 19.7505 15.4102 19.6691C16.4209 18.8094 17.434 17.9497 18.4517 17.0969L18.3693 16.2302L20.5933 14.3133L20.7393 15.7841L22.1788 16.1187L19.9548 18.0682V18.0659Z" fill="#010B11"/>
</g>
<defs>
<clipPath id="clip0_1_843">
<rect width="98" height="46" fill="white"/>
</clipPath>
</defs>
</svg>
